<?xml version="1.0" encoding="utf-8"?>
<!-- Generator: Adobe Illustrator 19.1.0, SVG Export Plug-In . SVG Version: 6.00 Build 0)  -->
<svg version="1.1" id="Layer_1" xmlns="http://www.w3.org/2000/svg" xmlns:xlink="http://www.w3.org/1999/xlink" x="0px" y="0px"
	 viewBox="0 0 88.7 13.1" style="enable-background:new 0 0 88.7 13.1;" xml:space="preserve">
<style type="text/css">
	.st0{fill:#FFFFFF;}
	.st1{fill:#38D9F6;}
</style>
<g>
	<path class="st0" d="M1.1,12.3V2c0-0.3-0.2-0.4-0.5-0.4L0,1.5V0h3.2v4.3c0.5-0.5,1.3-0.8,2.2-0.8c1.1,0,2,0.4,2.7,1.1
		c0.7,0.8,1,1.8,1,3.2c0,3.5-1.5,5.2-4.4,5.2c-0.6,0-1.3-0.1-2-0.2C2,12.7,1.5,12.5,1.1,12.3z M3.2,6.5v4.7c0.5,0.2,1,0.4,1.6,0.4
		c1.4,0,2.1-1.1,2.1-3.3c0-2-0.7-3-2-3C4.4,5.1,4,5.2,3.7,5.5C3.3,5.7,3.2,6.1,3.2,6.5z"/>
	<path class="st0" d="M13.1,0v11.3l1,0.1v1.4H9.9v-1.4l0.6-0.1c0.3,0,0.5-0.2,0.5-0.6V2c0-0.3-0.1-0.4-0.4-0.4l-0.6,0V0H13.1z"/>
	<path class="st0" d="M15,8.3c0-0.9,0.1-1.7,0.4-2.3c0.3-0.7,0.6-1.2,1.1-1.5c0.9-0.6,1.8-1,2.8-1c0.7,0,1.3,0.1,1.8,0.4
		c0.5,0.2,0.9,0.5,1.2,0.8C22.6,5,22.8,5.4,23,6c0.2,0.6,0.3,1.3,0.3,2.1c0,1.7-0.4,2.9-1.2,3.8c-0.8,0.9-1.8,1.3-3.1,1.3
		c-1.3,0-2.2-0.4-2.9-1.2S15,9.9,15,8.3z M19.2,11.5c1.3,0,2-1.1,2-3.2c0-1.1-0.1-1.9-0.4-2.4c-0.3-0.6-0.8-0.8-1.5-0.8
		S18,5.4,17.7,5.9c-0.3,0.5-0.5,1.2-0.5,2.2c0,1.7,0.3,2.8,0.9,3.2C18.4,11.4,18.8,11.5,19.2,11.5z"/>
	<path class="st0" d="M27.3,10.6c0.4,0.6,0.9,0.8,1.7,0.8c0.7,0,1.4-0.3,2.2-0.8l0.8,1.4c-0.9,0.7-1.9,1-3.2,1s-2.3-0.4-3-1.2
		c-0.7-0.8-1.1-2-1.1-3.6s0.4-2.8,1.3-3.6c0.8-0.8,1.8-1.2,2.9-1.2s2,0.2,3,0.7v2.3l-1.7,0.1V5.9c0-0.3-0.1-0.5-0.4-0.6
		c-0.2-0.1-0.5-0.1-0.7-0.1c-1.5,0-2.2,1-2.2,3.1C26.7,9.2,26.9,10,27.3,10.6z"/>
	<path class="st1" d="M37.6,5.1C37.3,5,37,5,36.6,5c-0.4,0-0.7,0.1-1,0.3c-0.2,0.2-0.4,0.4-0.4,0.7c0,0.3,0,0.5,0.1,0.6
		c0.1,0.1,0.2,0.3,0.4,0.4c0.3,0.2,0.7,0.3,1.1,0.4c0.4,0.1,0.7,0.2,0.9,0.3C38,7.7,38.2,7.8,38.5,8c0.3,0.2,0.5,0.3,0.7,0.5
		c0.4,0.4,0.6,1,0.6,1.7c0,0.9-0.3,1.6-1,2.1c-0.7,0.5-1.5,0.8-2.5,0.8c-1.5,0-2.6-0.2-3.3-0.6V10l1.6-0.1v0.9
		c0,0.5,0.5,0.8,1.5,0.8c1,0,1.5-0.4,1.5-1.1c0-0.3-0.1-0.5-0.3-0.6S37.1,9.5,37,9.5c-0.2-0.1-0.4-0.1-0.6-0.2s-0.5-0.1-0.7-0.2
		c-0.2-0.1-0.5-0.1-0.7-0.2c-0.3-0.1-0.5-0.2-0.9-0.4c-0.6-0.4-0.9-1.1-0.9-2c0-0.9,0.3-1.6,1-2.2c0.7-0.5,1.5-0.8,2.5-0.8
		c1,0,2,0.2,3,0.7v2.2L38,6.5V5.8C38,5.5,37.9,5.3,37.6,5.1z"/>
	<path class="st1" d="M43,1.9h1.2v1.9h2.4l-0.2,1.5h-2.2V10c0,0.5,0.1,0.9,0.3,1.1c0.2,0.2,0.5,0.3,0.9,0.3c0.4,0,0.8-0.1,1.2-0.4
		l0.5,1.4c-0.6,0.4-1.4,0.6-2.3,0.6c-0.5,0-1-0.1-1.4-0.2c-0.4-0.1-0.6-0.3-0.8-0.5c-0.2-0.2-0.3-0.4-0.4-0.7
		c-0.1-0.3-0.1-0.6-0.2-0.8c0-0.2,0-0.5,0-0.8V5.3h-1.3L40.9,4c0.6,0,1-0.2,1.3-0.6C42.5,3,42.8,2.5,43,1.9z"/>
	<path class="st1" d="M55.6,4.1v6.7c0,0.2,0,0.3,0.1,0.4c0.1,0.1,0.2,0.1,0.4,0.1l0.6,0v1.4h-2.9v-1l-0.1,0
		c-0.6,0.9-1.4,1.3-2.5,1.3c-1.2,0-2.1-0.4-2.7-1.2c-0.6-0.8-0.9-1.8-0.9-3.2c0-1.6,0.4-2.9,1.2-3.8c0.8-0.9,2-1.4,3.6-1.4
		C53.5,3.5,54.5,3.7,55.6,4.1z M53.6,10V5.3c-0.3-0.2-0.8-0.2-1.4-0.2c-0.8,0-1.4,0.3-1.7,1s-0.5,1.5-0.5,2.6c0,1.9,0.6,2.9,1.9,2.9
		c0.5,0,1-0.2,1.3-0.5S53.6,10.4,53.6,10z"/>
	<path class="st1" d="M58.9,10.8v-5c0-0.2,0-0.3-0.1-0.4c-0.1-0.1-0.2-0.1-0.4-0.1l-0.8-0.1V3.8h3v1.4c0.2-0.5,0.6-0.9,1-1.2
		c0.5-0.3,1-0.5,1.6-0.5c0.6,0,1.2,0.1,1.7,0.4v2.7l-1.7,0.1V5.9c0-0.2-0.1-0.4-0.2-0.4c-0.1-0.1-0.3-0.1-0.5-0.1
		c-0.5,0-0.9,0.2-1.2,0.5C61.2,6.2,61,6.6,61,7.2v4.2l1.6,0.1v1.4h-4.8v-1.4l0.6-0.1c0.2,0,0.3-0.1,0.4-0.2
		C58.9,11.2,58.9,11,58.9,10.8z"/>
	<path class="st1" d="M68.3,1.9h1.2v1.9h2.4l-0.2,1.5h-2.2V10c0,0.5,0.1,0.9,0.3,1.1c0.2,0.2,0.5,0.3,0.9,0.3c0.4,0,0.8-0.1,1.2-0.4
		l0.5,1.4c-0.6,0.4-1.4,0.6-2.3,0.6c-0.5,0-1-0.1-1.4-0.2c-0.4-0.1-0.6-0.3-0.8-0.5c-0.2-0.2-0.3-0.4-0.4-0.7
		c-0.1-0.3-0.1-0.6-0.2-0.8c0-0.2,0-0.5,0-0.8V5.3H66L66.2,4c0.6,0,1-0.2,1.3-0.6C67.8,3,68,2.5,68.3,1.9z"/>
	<path class="st1" d="M77.3,3.5c0.9,0,1.6,0.2,2.1,0.7s0.8,1.1,0.8,1.8c0,0.5-0.1,1-0.3,1.4c-0.2,0.4-0.5,0.7-0.8,0.9
		c-0.3,0.2-0.7,0.4-1.2,0.6c-0.8,0.2-1.7,0.4-2.7,0.4c0,0.6,0.2,1.1,0.6,1.5c0.4,0.4,0.9,0.6,1.7,0.6s1.5-0.3,2.2-0.8l0.7,1.5
		c-0.2,0.2-0.6,0.4-1.2,0.7c-0.6,0.2-1.2,0.3-2,0.3c-1.5,0-2.5-0.4-3.2-1.2s-1-1.9-1-3.3S73.3,5.9,74,5C74.8,4,75.9,3.5,77.3,3.5z
		 M76.5,7.6c0.4-0.1,0.8-0.3,1.2-0.5s0.6-0.6,0.6-1c0-0.7-0.4-1.1-1.1-1.1c-0.7,0-1.2,0.3-1.5,0.8C75.3,6.4,75.1,7,75,7.8
		C75.6,7.7,76.1,7.7,76.5,7.6z"/>
	<path class="st1" d="M82.6,10.8v-5c0-0.2,0-0.3-0.1-0.4c-0.1-0.1-0.2-0.1-0.4-0.1l-0.8-0.1V3.8h3v1.4c0.2-0.5,0.6-0.9,1-1.2
		c0.5-0.3,1-0.5,1.6-0.5s1.2,0.1,1.7,0.4v2.7L87,6.7V5.9c0-0.2-0.1-0.4-0.2-0.4c-0.1-0.1-0.3-0.1-0.5-0.1c-0.5,0-0.9,0.2-1.2,0.5
		c-0.3,0.3-0.5,0.8-0.5,1.3v4.2l1.6,0.1v1.4h-4.8v-1.4l0.6-0.1c0.2,0,0.3-0.1,0.4-0.2C82.5,11.2,82.6,11,82.6,10.8z"/>
</g>
</svg>
