<?xml version="1.0" encoding="utf-8"?>
<!-- Generator: Adobe Illustrator 19.1.0, SVG Export Plug-In . SVG Version: 6.00 Build 0)  -->
<svg version="1.1" id="Layer_1" xmlns="http://www.w3.org/2000/svg" xmlns:xlink="http://www.w3.org/1999/xlink" x="0px" y="0px"
	 viewBox="0 0 213.2 63.9" style="enable-background:new 0 0 213.2 63.9;" xml:space="preserve">
<style type="text/css">
	.st0{fill:#FFFFFF;stroke:#231F20;stroke-miterlimit:10;}
	.st1{stroke:#231F20;stroke-miterlimit:10;}
	.st2{fill:#E40023;}
	.st3{fill:none;stroke:#000000;stroke-miterlimit:10;}
	.st4{font-family:'Ubuntu-Medium';}
	.st5{font-size:12px;}
</style>
<g>
	<g>
		<path class="st0" d="M43.8,51.5H20c-4.2,0-10.6-5.2-10.6-11.7V29.6c0-12.8,6.9-23.3,15.2-23.3h14.6c8.4,0,15.2,10.5,15.2,23.3
			v10.3C54.4,46.3,48,51.5,43.8,51.5z"/>
		<g>
			<circle class="st0" cx="39.8" cy="20.4" r="5.2"/>
			<g>
				<circle class="st0" cx="24" cy="20.4" r="5.2"/>
				<circle class="st1" cx="24" cy="20.4" r="2.2"/>
			</g>
		</g>
	</g>
	<g>
		<g>
			<path class="st0" d="M121.9,46.4H92.1c-4.2,0-7.6-4-7.6-9v-7.9c0-9.9,6.9-18,15.2-18h14.6c8.4,0,15.2,8.1,15.2,18v7.9
				C129.5,42.3,126.1,46.4,121.9,46.4z"/>
			<g>
				<circle class="st0" cx="114.9" cy="25.6" r="5.2"/>
				<g>
					<circle class="st0" cx="99.1" cy="25.6" r="5.2"/>
					<circle class="st1" cx="99.1" cy="25.6" r="2.2"/>
				</g>
			</g>
		</g>
		<g>
			<g>
				<path d="M71.3,12.9c0.4,0.1,0.8,0.2,1.4,0.3c0.5,0.1,1,0.3,1.6,0.5c0.5,0.2,1.1,0.4,1.6,0.6c0.5,0.2,1,0.4,1.5,0.6
					c-0.1-0.5-0.2-1-0.2-1.6c-0.1-0.6-0.1-1.1-0.2-1.7c0-0.6-0.1-1.1-0.1-1.7c0-0.5,0-1,0-1.4c0.5-0.4,1.1-0.7,1.6-1
					c0.4,0.5,0.8,1,1.3,1.5c0.4,0.5,0.9,1.1,1.3,1.7c0.4,0.6,0.9,1.2,1.3,1.7c0.4,0.6,0.8,1.2,1.2,1.7c-0.5,0.3-1,0.6-1.5,0.9
					c-0.6-0.8-1.2-1.6-1.8-2.4c-0.6-0.8-1.2-1.6-1.9-2.3c0,0.2,0,0.5,0,0.8c0,0.3,0,0.6,0.1,1c0,0.3,0.1,0.7,0.1,1.1
					c0,0.4,0.1,0.7,0.1,1.1c0,0.3,0.1,0.7,0.1,0.9c0,0.3,0.1,0.5,0.1,0.7c-0.4,0.3-0.7,0.6-1.1,0.9c-0.2-0.1-0.4-0.2-0.7-0.3
					c-0.3-0.1-0.6-0.2-0.9-0.4c-0.3-0.1-0.7-0.2-1-0.4c-0.3-0.1-0.7-0.2-1-0.3c-0.3-0.1-0.6-0.2-0.9-0.3c-0.3-0.1-0.5-0.2-0.8-0.2
					c0.6,0.8,1.2,1.6,1.8,2.4c0.6,0.8,1.3,1.6,1.9,2.3c-0.4,0.4-0.9,0.8-1.3,1.3c-0.5-0.5-0.9-1.1-1.4-1.6c-0.5-0.6-0.9-1.1-1.4-1.7
					c-0.5-0.6-0.9-1.1-1.3-1.7c-0.4-0.5-0.8-1.1-1.1-1.6C70.3,13.8,70.8,13.4,71.3,12.9z"/>
				<path d="M88.4,4.7c0.1,2.5,0.1,4.9,0,7.1c0,0.4-0.1,0.8-0.1,1.1c-0.1,0.3-0.2,0.6-0.3,0.9c-0.1,0.3-0.3,0.5-0.5,0.7
					c-0.2,0.2-0.5,0.4-0.8,0.6c-0.2,0.1-0.4,0.2-0.7,0.3c-0.2,0.1-0.4,0.1-0.6,0.1c-0.1-0.4-0.2-0.8-0.3-1.2
					c0.3-0.1,0.7-0.2,0.9-0.3c0.4-0.2,0.6-0.4,0.8-0.7c0.1-0.3,0.2-0.6,0.2-1c-0.9-0.5-1.8-1.2-2.7-1.8c-1-0.7-1.9-1.4-2.9-2.2
					c0.6-0.3,1.2-0.7,1.8-1c0.3,0.2,0.5,0.5,0.9,0.8c0.3,0.3,0.6,0.6,1,0.8c0.3,0.3,0.7,0.6,1,0.8c0.3,0.3,0.7,0.5,1,0.8
					c0-0.8-0.1-1.6-0.2-2.4c-0.1-0.8-0.2-1.7-0.2-2.5C87.2,5.2,87.8,5,88.4,4.7z"/>
				<path d="M102.6,3.5c0.1,0.7,0,1.4-0.2,1.9c-0.2,0.6-0.5,1-1,1.5c-0.4,0.4-1,0.8-1.6,1c-0.6,0.3-1.3,0.5-2.1,0.7
					c-0.4,0.1-0.8,0.2-1.3,0.3C96,8.9,95.5,9,95,9c-0.7-2.6-1.5-5.2-2.2-7.8c0.5-0.2,1-0.4,1.6-0.6c0.6-0.2,1.1-0.3,1.5-0.4
					C96.9,0,97.7,0,98.5,0c0.8,0,1.5,0.2,2.1,0.5c0.6,0.3,1.1,0.7,1.4,1.2C102.3,2.1,102.5,2.7,102.6,3.5z M96.5,7.5
					c0.1,0,0.2,0,0.4-0.1c0.2,0,0.4-0.1,0.7-0.1c1.2-0.3,2-0.7,2.5-1.3c0.5-0.6,0.7-1.4,0.6-2.3c-0.1-0.9-0.5-1.6-1.2-2
					c-0.7-0.4-1.7-0.5-3.1-0.2c-0.6,0.1-1,0.2-1.2,0.3C95.6,3.7,96,5.6,96.5,7.5z"/>
				<path d="M107.2,1c0.6,0,1.2,0.1,1.6,0.2c0.4,0.1,0.8,0.3,1,0.5c0.2,0.2,0.4,0.5,0.5,0.8c0.1,0.3,0.1,0.7,0.1,1
					c-0.1,1.3-0.1,2.5-0.2,3.8c-0.3,0-0.6,0.1-1.2,0.1c-0.5,0.1-1.1,0.1-1.7,0.1c-0.4,0-0.8,0-1.2-0.1c-0.4-0.1-0.7-0.2-0.9-0.3
					c-0.3-0.1-0.5-0.3-0.6-0.6c-0.2-0.2-0.3-0.6-0.3-0.9c0-0.4,0-0.7,0.2-0.9c0.2-0.3,0.4-0.5,0.7-0.6c0.3-0.2,0.6-0.3,1-0.4
					c0.4-0.1,0.8-0.1,1.2-0.1c0.2,0,0.4,0,0.6,0c0.2,0,0.4,0.1,0.7,0.1c0-0.1,0-0.2,0-0.2c0-0.2,0-0.3-0.1-0.5
					c0-0.2-0.1-0.3-0.3-0.4c-0.1-0.1-0.3-0.2-0.5-0.3c-0.2-0.1-0.5-0.1-0.8-0.1c-0.4,0-0.8,0-1.2,0.1c-0.4,0.1-0.6,0.1-0.9,0.2
					c-0.1-0.4-0.2-0.8-0.3-1.2c0.2-0.1,0.6-0.2,1-0.2C106.1,1,106.6,1,107.2,1z M107.3,6.4c0.5,0,0.9,0,1.2-0.1c0-0.5,0-1.1,0-1.6
					c-0.1,0-0.2-0.1-0.4-0.1c-0.2,0-0.4,0-0.6,0c-0.2,0-0.4,0-0.6,0c-0.2,0-0.4,0.1-0.5,0.1c-0.2,0.1-0.3,0.2-0.4,0.3
					c-0.1,0.1-0.1,0.3-0.1,0.4c0,0.3,0.1,0.6,0.4,0.7C106.6,6.3,106.9,6.4,107.3,6.4z"/>
				<path d="M117.1,3.3c-0.1-0.1-0.3-0.1-0.6-0.2c-0.3-0.1-0.6-0.2-0.9-0.2c-0.2,0-0.4,0-0.6-0.1c-0.2,0-0.4,0-0.5,0
					c-0.2,1.7-0.5,3.3-0.7,5c-0.5-0.1-1.1-0.1-1.6-0.2c0.2-2,0.4-4,0.6-5.9c0.4-0.1,0.8-0.1,1.4-0.1c0.6,0,1.2,0,1.8,0.1
					c0.1,0,0.3,0.1,0.4,0.1c0.2,0,0.3,0.1,0.5,0.1c0.2,0,0.3,0.1,0.5,0.2c0.1,0.1,0.3,0.1,0.4,0.1C117.5,2.6,117.3,2.9,117.1,3.3z"
					/>
				<path d="M123.3,10c-0.3,0-0.8-0.1-1.3-0.2c-0.5-0.1-1.1-0.2-1.7-0.4c-0.6-0.2-1-0.4-1.3-0.6c-0.3-0.2-0.6-0.5-0.8-0.8
					c-0.2-0.3-0.3-0.6-0.3-1c0-0.4,0-0.8,0.1-1.2c0.3-1.1,0.5-2.3,0.8-3.4c0.6,0.1,1.2,0.3,1.8,0.4c-0.3,1.1-0.6,2.1-0.8,3.2
					c-0.2,0.7-0.2,1.1,0,1.5c0.1,0.3,0.5,0.6,1.1,0.7c0.2,0.1,0.4,0.1,0.6,0.2c0.2,0.1,0.4,0.1,0.5,0.1c0.5-1.6,1-3.2,1.6-4.8
					c0.6,0.2,1.2,0.4,1.8,0.6C124.7,6.2,124,8.1,123.3,10z"/>
				<path d="M130.6,9.8c0.3-0.6,0.4-1,0.4-1.4c-0.1-0.4-0.3-0.7-0.9-0.9c-0.2-0.1-0.4-0.2-0.6-0.3c-0.2-0.1-0.4-0.1-0.5-0.2
					c-0.7,1.5-1.4,3.1-2.1,4.6c-0.5-0.2-1-0.5-1.5-0.7c0.8-1.9,1.6-3.7,2.3-5.6c0.4,0.1,0.8,0.2,1.4,0.4c0.6,0.2,1.2,0.4,1.8,0.7
					c0.5,0.3,0.9,0.5,1.2,0.8c0.3,0.3,0.5,0.5,0.6,0.8c0.1,0,0.3,0,0.5,0c0.2,0,0.4,0.1,0.6,0.1c0.2,0.1,0.5,0.1,0.7,0.2
					c0.2,0.1,0.5,0.2,0.7,0.3c0.6,0.3,1,0.7,1.3,1.1c0.3,0.4,0.4,0.7,0.5,1c0.1,0.3,0,0.7-0.1,1c-0.1,0.3-0.3,0.7-0.6,1
					c-0.7,1-1.4,1.9-2,2.9c-0.5-0.3-0.9-0.7-1.4-1c0.6-0.9,1.2-1.8,1.8-2.8c0.4-0.5,0.5-1,0.5-1.4c0-0.4-0.3-0.7-0.8-1
					c-0.3-0.2-0.5-0.3-0.8-0.3c-0.3-0.1-0.5-0.1-0.6-0.1c0,0.2-0.1,0.4-0.2,0.6c-0.1,0.2-0.2,0.4-0.3,0.6c-0.6,1-1.2,2-1.7,3
					c-0.5-0.3-1-0.6-1.5-0.8C129.5,11.8,130.1,10.8,130.6,9.8z"/>
				<path d="M141.9,13.9c0.5,0.4,0.9,0.9,1.1,1.3c0.3,0.4,0.4,0.8,0.4,1.1c0,0.3,0,0.7-0.1,1c-0.1,0.3-0.3,0.6-0.6,0.8
					c-0.9,0.9-1.8,1.8-2.7,2.7c-0.2-0.2-0.6-0.4-1-0.7c-0.4-0.3-0.9-0.7-1.4-1.2c-0.3-0.3-0.6-0.6-0.9-0.9c-0.2-0.3-0.4-0.6-0.5-0.9
					c-0.1-0.3-0.1-0.6-0.1-0.9c0-0.3,0.2-0.6,0.4-0.9c0.2-0.3,0.5-0.5,0.8-0.6c0.3-0.1,0.6-0.1,0.9,0c0.3,0.1,0.7,0.2,1.1,0.4
					c0.4,0.2,0.7,0.5,1.1,0.8c0.2,0.1,0.3,0.3,0.5,0.5c0.2,0.2,0.3,0.4,0.5,0.6c0.1-0.1,0.1-0.1,0.2-0.2c0.1-0.1,0.2-0.3,0.3-0.4
					c0.1-0.1,0.1-0.3,0.1-0.5c0-0.2-0.1-0.4-0.2-0.6c-0.1-0.2-0.3-0.4-0.6-0.6c-0.3-0.3-0.7-0.5-1-0.7c-0.3-0.2-0.6-0.3-0.8-0.4
					c0.2-0.4,0.4-0.7,0.5-1.1c0.2,0.1,0.6,0.3,1,0.5C141.1,13.2,141.5,13.5,141.9,13.9z M138.5,18c0.4,0.4,0.7,0.6,1,0.8
					c0.4-0.4,0.7-0.8,1.1-1.2c-0.1-0.1-0.2-0.2-0.3-0.4c-0.1-0.2-0.3-0.3-0.5-0.5c-0.2-0.1-0.3-0.3-0.5-0.4
					c-0.2-0.1-0.3-0.2-0.5-0.3c-0.2-0.1-0.3-0.1-0.5-0.1c-0.2,0-0.3,0.1-0.4,0.2c-0.2,0.3-0.3,0.5-0.1,0.8
					C137.9,17.5,138.2,17.7,138.5,18z"/>
			</g>
		</g>
	</g>
	<g>
		<g>
			<path class="st2" d="M213.2,33.8c0,15.3-10.5,24.3-23.5,24.3c-13,0-23.5-9.1-23.5-24.3s10.5-27.7,23.5-27.7
				C202.6,6.2,213.2,18.5,213.2,33.8z"/>
			<g>
				<path class="st0" d="M200.7,36.4h-22c-2.2,0-4-1.8-4-4v-9.5c0-2.2,1.8-4,4-4h22c2.2,0,4,1.8,4,4v9.5
					C204.7,34.6,202.9,36.4,200.7,36.4z"/>
				<g>
					<circle class="st3" cx="183.9" cy="26.2" r="4"/>
					<g>
						<circle class="st3" cx="195.4" cy="26.2" r="4"/>
						<circle cx="195.4" cy="26.2" r="2.5"/>
					</g>
				</g>
			</g>
		</g>
		<text transform="matrix(1 0 0 1 185.3052 48.1554)" class="st4 st5">D</text>
	</g>
	<text transform="matrix(1 0 0 1 -4.577637e-05 61.4887)" class="st4 st5">My Daruma</text>
</g>
</svg>
