<?xml version="1.0" encoding="utf-8"?>
<!-- Generator: Adobe Illustrator 19.1.0, SVG Export Plug-In . SVG Version: 6.00 Build 0)  -->
<svg version="1.1" id="Layer_1" xmlns="http://www.w3.org/2000/svg" xmlns:xlink="http://www.w3.org/1999/xlink" x="0px" y="0px"
	 viewBox="0 0 253.3 52" style="enable-background:new 0 0 253.3 52;" xml:space="preserve">
<style type="text/css">
	.st0{fill:#E40023;}
	.st1{fill:#FFFFFF;stroke:#231F20;stroke-miterlimit:10;}
	.st2{fill:none;stroke:#000000;stroke-miterlimit:10;}
	.st3{font-family:'Ubuntu-Medium';}
	.st4{font-size:12px;}
	.st5{font-family:'Ubuntu-Bold';}
	.st6{font-size:36px;}
</style>
<g>
	<g>
		<g>
			<path class="st0" d="M47,27.7C47,42.9,36.5,52,23.5,52S0,42.9,0,27.7S10.5,0,23.5,0S47,12.4,47,27.7z"/>
			<g>
				<path class="st1" d="M34.5,30.2h-22c-2.2,0-4-1.8-4-4v-9.5c0-2.2,1.8-4,4-4h22c2.2,0,4,1.8,4,4v9.5
					C38.5,28.4,36.7,30.2,34.5,30.2z"/>
				<g>
					<circle class="st2" cx="17.8" cy="20" r="4"/>
					<g>
						<circle class="st2" cx="29.2" cy="20.1" r="4"/>
						<circle cx="29.2" cy="20.1" r="2.5"/>
					</g>
				</g>
			</g>
		</g>
		<text transform="matrix(1 0 0 1 19.1441 41.9934)" class="st3 st4">D</text>
	</g>
	<text transform="matrix(1 0 0 1 58.881 37.2591)" class="st5 st6">My Daruma</text>
</g>
</svg>
