<?xml version="1.0" encoding="utf-8"?>
<!-- Generator: Adobe Illustrator 19.1.0, SVG Export Plug-In . SVG Version: 6.00 Build 0)  -->
<svg version="1.1" id="Layer_1" xmlns="http://www.w3.org/2000/svg" xmlns:xlink="http://www.w3.org/1999/xlink" x="0px" y="0px"
	 viewBox="0 0 600 300" style="enable-background:new 0 0 600 300;" xml:space="preserve">
<style type="text/css">
	.st0{fill:#E40023;}
	.st1{fill:#FFFFFF;stroke:#231F20;stroke-miterlimit:10;}
	.st2{fill:none;stroke:#000000;stroke-miterlimit:10;}
	.st3{font-family:'Ubuntu-Medium';}
	.st4{font-size:24px;}
	.st5{font-family:'Ubuntu-Bold';}
	.st6{font-size:60px;}
</style>
<g>
	<g>
		<g>
			<path class="st0" d="M219.3,156.4c0,30.6-21,48.7-47,48.7s-47-18.1-47-48.7s21-55.3,47-55.3S219.3,125.9,219.3,156.4z"/>
			<g>
				<path class="st1" d="M198.3,161.5h-52c-2.2,0-4-1.8-4-4v-26.9c0-2.2,1.8-4,4-4h52c2.2,0,4,1.8,4,4v26.9
					C202.3,159.7,200.5,161.5,198.3,161.5z"/>
				<g>
					<circle class="st2" cx="160.8" cy="141.2" r="8"/>
					<g>
						<circle class="st2" cx="183.8" cy="141.2" r="8"/>
						<circle cx="183.8" cy="141.2" r="5"/>
					</g>
				</g>
			</g>
		</g>
		<text transform="matrix(1 0 0 1 163.615 185.0882)" class="st3 st4">D</text>
	</g>
	<text transform="matrix(1 0 0 1 234.7662 171.8662)" class="st5 st6">My Daruma</text>
</g>
</svg>
