<?xml version="1.0" encoding="utf-8"?>
<!-- Generator: Adobe Illustrator 19.1.0, SVG Export Plug-In . SVG Version: 6.00 Build 0)  -->
<svg version="1.1" id="Layer_1" xmlns="http://www.w3.org/2000/svg" xmlns:xlink="http://www.w3.org/1999/xlink" x="0px" y="0px"
	 viewBox="0 0 792 612" style="enable-background:new 0 0 792 612;" xml:space="preserve">
<style type="text/css">
	.st0{fill:#C0392B;}
	.st1{fill:#FF6353;}
	.st2{fill:#333333;}
	.st3{fill:#2CC36B;}
	.st4{fill:#EAEAEA;}
	.st5{fill:#FFFFFF;}
	.st6{font-family:'Dosis-Light';}
	.st7{font-size:20px;}
	.st8{font-size:12px;}
	.st9{fill:none;stroke:#9B9B9B;stroke-miterlimit:10;}
	.st10{font-family:'Dosis-ExtraBold';}
	.st11{font-size:40px;}
	.st12{font-family:'Dosis-ExtraLight';}
	.st13{font-size:10px;}
	.st14{font-family:'Avenir-Book';}
	.st15{font-family:'Roboto-Light';}
	.st16{font-family:'Dosis-Bold';}
</style>
<rect x="21" y="275.7" class="st0" width="149.7" height="87.3"/>
<rect x="170.7" y="275.7" class="st1" width="149.7" height="87.3"/>
<rect x="470.2" y="275.7" class="st2" width="149.7" height="87.3"/>
<rect x="320.5" y="275.7" class="st3" width="149.7" height="87.3"/>
<rect x="620" y="275.7" class="st4" width="149.7" height="87.3"/>
<rect x="264.7" y="61.3" class="st0" width="266" height="87.3"/>
<g>
	<g>
		<path class="st0" d="M84.4,115.1V90.4c0-0.5,0.2-0.9,0.6-1.3c0.4-0.4,1-0.5,1.6-0.5h8.1c2.8,0,5,0.7,6.7,2.2
			c1.7,1.4,2.5,3.7,2.5,6.8v0.2c0,3.1-0.9,5.4-2.6,6.8c-1.8,1.5-4.1,2.2-7,2.2h-3.9v8.4c0,0.6-0.3,1.1-0.9,1.4
			c-0.6,0.3-1.3,0.5-2.1,0.5c-0.8,0-1.5-0.2-2.1-0.5C84.7,116.2,84.4,115.7,84.4,115.1z M90.5,102h3.9c2.3,0,3.5-1.3,3.5-3.9v-0.4
			c0-2.6-1.2-3.9-3.5-3.9h-3.9V102z"/>
		<path class="st0" d="M104.8,112c0-2.1,0.8-3.5,2.4-4.4c1.6-0.9,3.8-1.3,6.8-1.3h1.4v-0.4c0-0.8-0.2-1.5-0.7-2.1
			c-0.5-0.6-1.2-0.9-2.2-0.9c-1.2,0-2.3,0.2-3.1,0.7c-0.8,0.5-1.3,0.7-1.5,0.7c-0.6,0-1.1-0.3-1.5-0.9c-0.4-0.6-0.5-1.3-0.5-2.1
			c0-0.9,0.7-1.6,2.2-2.2c1.4-0.6,2.9-0.9,4.5-0.9c3,0,5.2,0.7,6.7,2.2c1.5,1.5,2.2,3.3,2.2,5.5v9.3c0,0.5-0.3,1-0.8,1.3
			c-0.6,0.4-1.3,0.5-2.1,0.5c-0.8,0-1.4-0.2-1.9-0.6c-0.5-0.4-0.8-0.9-0.8-1.4v-0.9c-1.8,2.2-3.8,3.3-5.9,3.3
			c-1.4,0-2.6-0.5-3.6-1.4C105.3,115.1,104.8,113.8,104.8,112z M110.9,111.2c0,1,0.5,1.5,1.5,1.5c0.6,0,1.3-0.3,1.9-1
			c0.6-0.7,1-1.4,1-2.3v-0.1h-0.2c-0.9,0-1.6,0-2.1,0.1c-0.6,0.1-1.1,0.3-1.5,0.6C111.1,110.2,110.9,110.7,110.9,111.2z"/>
		<path class="st0" d="M122.8,122.8c0-1.7,0.5-2.6,1.5-2.6c3.7,0,5.5-1.6,5.5-4.9l-6.8-13.4c-0.1-0.3-0.2-0.5-0.2-0.8
			c0-0.7,0.5-1.4,1.4-2c0.9-0.6,1.8-0.9,2.7-0.9c0.9,0,1.4,0.3,1.7,1l4.4,10.5l3.2-10.5c0.3-0.6,0.8-1,1.6-1c0.8,0,1.7,0.3,2.7,0.9
			c1,0.6,1.5,1.3,1.5,2.1c0,0.3-0.1,0.5-0.2,0.7l-5.5,13.8c-0.1,0.4-0.4,1-0.7,1.8l-0.7,1.8c-0.1,0.4-0.4,0.9-0.7,1.6
			c-0.4,0.7-0.7,1.2-1,1.5c-0.3,0.3-0.7,0.7-1.2,1.2c-0.5,0.5-1.1,0.8-1.6,1c-0.6,0.2-1.3,0.4-2.1,0.6c-0.8,0.2-1.7,0.3-2.7,0.3
			c-0.9,0-1.6-0.2-2.1-0.5C123,124.6,122.8,123.9,122.8,122.8z"/>
		<path class="st0" d="M143.1,109.1v-2.7c0-2.5,0.7-4.5,2.2-6c1.5-1.5,3.7-2.3,6.6-2.3c1.9,0,3.4,0.3,4.7,1c1.3,0.6,1.9,1.4,1.9,2.3
			c0,0.7-0.2,1.3-0.7,2c-0.5,0.7-1,1-1.7,1c-0.2,0-0.7-0.1-1.4-0.4c-0.7-0.3-1.5-0.4-2.3-0.4c-2.2,0-3.2,1-3.2,3v2.6
			c0,2,1.1,3,3.3,3c0.8,0,1.5-0.2,2.2-0.5c0.7-0.3,1.2-0.5,1.5-0.5c0.8,0,1.4,0.3,1.9,0.9c0.5,0.6,0.7,1.3,0.7,1.9
			c0,0.9-0.7,1.7-2,2.4c-1.3,0.7-2.9,1-4.8,1c-3,0-5.2-0.8-6.6-2.3C143.9,113.6,143.1,111.6,143.1,109.1z"/>
		<path class="st0" d="M161,115.1v-14.9c0-0.5,0.3-1,0.8-1.3c0.6-0.3,1.3-0.5,2.1-0.5c0.8,0,1.4,0.2,1.9,0.5s0.8,0.8,0.8,1.3v1.5
			c0.4-0.9,1.1-1.8,1.9-2.5c0.9-0.7,1.8-1.1,2.7-1.1h1.1c0.6,0,1.1,0.3,1.5,0.8c0.4,0.5,0.6,1.1,0.6,1.8c0,0.7-0.2,1.4-0.6,1.9
			c-0.4,0.5-0.9,0.8-1.5,0.8h-1.1c-1.1,0-2.1,0.5-3,1.6c-0.9,1.1-1.3,2.5-1.3,4.2v5.8c0,0.5-0.3,0.9-0.9,1.3
			c-0.6,0.4-1.3,0.6-2.2,0.6c-0.8,0-1.5-0.2-2.1-0.6C161.3,116.1,161,115.6,161,115.1z"/>
		<path class="st0" d="M175.3,112c0-2.1,0.8-3.5,2.4-4.4c1.6-0.9,3.8-1.3,6.8-1.3h1.4v-0.4c0-0.8-0.2-1.5-0.7-2.1
			c-0.5-0.6-1.2-0.9-2.2-0.9c-1.2,0-2.3,0.2-3.1,0.7c-0.8,0.5-1.3,0.7-1.5,0.7c-0.6,0-1.1-0.3-1.5-0.9c-0.4-0.6-0.5-1.3-0.5-2.1
			c0-0.9,0.7-1.6,2.2-2.2c1.4-0.6,2.9-0.9,4.5-0.9c3,0,5.2,0.7,6.7,2.2c1.5,1.5,2.2,3.3,2.2,5.5v9.3c0,0.5-0.3,1-0.8,1.3
			c-0.6,0.4-1.3,0.5-2.1,0.5c-0.8,0-1.4-0.2-1.9-0.6c-0.5-0.4-0.8-0.9-0.8-1.4v-0.9c-1.8,2.2-3.8,3.3-5.9,3.3
			c-1.4,0-2.6-0.5-3.6-1.4C175.8,115.1,175.3,113.8,175.3,112z M181.4,111.2c0,1,0.5,1.5,1.5,1.5c0.6,0,1.3-0.3,1.9-1
			c0.6-0.7,1-1.4,1-2.3v-0.1h-0.2c-0.9,0-1.6,0-2.1,0.1c-0.6,0.1-1.1,0.3-1.5,0.6C181.6,110.2,181.4,110.7,181.4,111.2z"/>
		<path class="st0" d="M193.3,100.7c0-0.6,0.5-1.2,1.4-1.8c0.9-0.5,1.8-0.8,2.7-0.8c0.9,0,1.4,0.3,1.7,1l4,10.2l4-10.2
			c0.3-0.6,0.8-1,1.6-1c0.7,0,1.6,0.3,2.6,0.8c1,0.5,1.5,1.1,1.5,1.8c0,0.2-0.1,0.5-0.2,0.7l-6.9,15c-0.3,0.7-1.2,1.1-2.7,1.1
			s-2.4-0.4-2.7-1.1l-6.9-15C193.3,101.3,193.3,101,193.3,100.7z"/>
		<path class="st0" d="M213.7,109.1v-2.8c0-2.2,0.9-4.1,2.6-5.7c1.8-1.6,3.9-2.4,6.3-2.4c2.3,0,4.3,0.7,5.9,2.1
			c1.6,1.4,2.5,3.2,2.5,5.3c0,0.8-0.1,1.5-0.3,2c-0.2,0.5-0.5,0.9-0.9,1.1c-0.4,0.2-0.8,0.3-1.1,0.4c-0.4,0.1-0.8,0.1-1.4,0.1h-7.5
			v0.2c0,1,0.4,1.8,1.1,2.3c0.7,0.6,1.7,0.9,2.9,0.9c0.9,0,1.9-0.2,2.9-0.7c1-0.5,1.7-0.7,2-0.7c0.6,0,1.2,0.3,1.6,0.9
			c0.4,0.6,0.6,1.2,0.6,1.7c0,0.8-0.7,1.6-2.1,2.4c-1.4,0.8-3.1,1.1-5.2,1.1c-2.9,0-5.3-0.8-7.1-2.3
			C214.7,113.6,213.7,111.6,213.7,109.1z M219.8,105.9h4.8c0.5,0,0.8-0.3,0.8-0.8c0-0.7-0.3-1.2-0.8-1.6c-0.6-0.4-1.2-0.6-2-0.6
			c-0.8,0-1.4,0.2-2,0.6c-0.6,0.4-0.8,0.9-0.8,1.6V105.9z"/>
	</g>
	<g>
		<path class="st0" d="M21,100.1c0.4,1.2,1.6,3.2,3.8,2.6c0.3-0.1,0.6-0.2,0.8-0.3c0.8,0.6,1.6,0.9,2.3,1.1c0.3,1.8,0.9,3.6,1.7,5.2
			v8.6c0,1.5,1.2,2.7,2.7,2.7h4.2c1.5,0,2.7-1.2,2.7-2.7v-0.5c3.6,1.2,7.6,1.2,11.2,0v0.5c0,1.5,1.2,2.7,2.7,2.7h4.2
			c1.5,0,2.7-1.2,2.7-2.7v-4.8c0.7,0.1,1.5,0.2,2.2,0.2c3.6,0,7-1.6,9.2-4.3h3.7c0.8,0,1.5-0.7,1.5-1.5v-7.8c0-0.8-0.7-1.5-1.5-1.5
			h-1.7c-1.4-3.9-4.9-6.8-9.1-7.6v-3.3c0-0.7-0.6-1.3-1.3-1.5c0,0-0.1,0-0.4,0c-0.9,0-3.2,0.4-5.8,4c-3.2-3-7.5-4.7-12-4.7
			c-9.5,0-17.2,7.5-17.2,16.6c0,0.2,0,0.5,0,0.7c-0.3-0.1-0.5-0.2-0.8-0.4c0.2-0.2,0.3-0.5,0.5-0.8c0.8-1.8-0.5-4-0.5-4.1
			c-0.1-0.1-0.1-0.2-0.2-0.2c-0.1-0.1-0.9-0.6-1.7-0.1c-0.7,0.4-1.1,1.4-1,2.9c0,0.8,0.3,1.5,0.6,2.1c0,0-0.1,0-0.1,0
			c-1.3,0.4-1.9-1.6-2-1.6c-0.1-0.4-0.6-0.6-1-0.5C21.1,99.3,20.9,99.7,21,100.1z M30.8,101.1c0-7.5,6.4-13.6,14.2-13.6
			c4.3,0,8.4,1.9,11.1,5.1c0.3,0.4,0.8,0.6,1.3,0.5c0.5,0,0.9-0.3,1.2-0.7c1.2-2,2.2-3,3-3.6v2.5c0,0.8,0.6,1.5,1.4,1.5
			c3.9,0.2,7.2,2.9,8,6.5c0.2,0.7,0.8,1.2,1.5,1.2h1.3v4.8h-2.9c-0.5,0-0.9,0.2-1.2,0.6c-1.6,2.3-4.3,3.6-7.2,3.6
			c-1.1,0-2.2-0.2-3.2-0.6c-0.5-0.2-1-0.1-1.4,0.2c-0.4,0.3-0.7,0.8-0.7,1.2v6.5h-3.6v-2.4c0-0.5-0.3-1-0.7-1.3
			c-0.4-0.3-1-0.3-1.5-0.1c-2,1-4.2,1.5-6.4,1.5c-2.3,0-4.4-0.5-6.5-1.5c-0.5-0.2-1-0.2-1.5,0.1c-0.4,0.3-0.7,0.8-0.7,1.3v2.5h-3.6
			v-8.7c0-0.3-0.1-0.5-0.2-0.8C31.4,105.6,30.8,103.4,30.8,101.1z M25.6,97.5C25.6,97.5,25.7,97.5,25.6,97.5
			c0.3,0.6,0.7,1.7,0.4,2.6c0,0.1-0.1,0.2-0.2,0.3c-0.3-0.4-0.4-0.8-0.4-1.3C25.4,97.8,25.6,97.5,25.6,97.5z"/>
		<ellipse class="st0" cx="66.5" cy="98.1" rx="1" ry="1.6"/>
		<path class="st0" d="M40.5,90.9c5.1-1.9,8.1,0,8.2,0.1c0.3,0.2,0.4,0.7,0.2,1c-0.2,0.3-0.7,0.4-1,0.2c-0.1-0.1-2.5-1.5-6.9,0.1
			c-0.1,0-0.2,0-0.3,0c-0.3,0-0.6-0.2-0.7-0.5C39.9,91.4,40.1,91,40.5,90.9z"/>
	</g>
</g>
<g>
	<g>
		<path class="st5" d="M356.1,115.1V90.4c0-0.5,0.2-0.9,0.6-1.3c0.4-0.4,1-0.5,1.6-0.5h8.1c2.8,0,5,0.7,6.7,2.2s2.5,3.7,2.5,6.8v0.2
			c0,3.1-0.9,5.4-2.6,6.8c-1.8,1.5-4.1,2.2-7,2.2h-3.9v8.4c0,0.6-0.3,1.1-0.9,1.4c-0.6,0.3-1.3,0.5-2.1,0.5c-0.8,0-1.5-0.2-2.1-0.5
			C356.4,116.2,356.1,115.7,356.1,115.1z M362.1,102h3.9c2.3,0,3.5-1.3,3.5-3.9v-0.4c0-2.6-1.2-3.9-3.5-3.9h-3.9V102z"/>
		<path class="st5" d="M376.4,112c0-2.1,0.8-3.5,2.4-4.4c1.6-0.9,3.8-1.3,6.8-1.3h1.4v-0.4c0-0.8-0.2-1.5-0.7-2.1
			c-0.5-0.6-1.2-0.9-2.2-0.9c-1.2,0-2.3,0.2-3.1,0.7c-0.8,0.5-1.3,0.7-1.5,0.7c-0.6,0-1.1-0.3-1.5-0.9c-0.4-0.6-0.5-1.3-0.5-2.1
			c0-0.9,0.7-1.6,2.2-2.2c1.4-0.6,2.9-0.9,4.5-0.9c3,0,5.2,0.7,6.7,2.2c1.5,1.5,2.2,3.3,2.2,5.5v9.3c0,0.5-0.3,1-0.8,1.3
			c-0.6,0.4-1.3,0.5-2.1,0.5c-0.8,0-1.4-0.2-1.9-0.6c-0.5-0.4-0.8-0.9-0.8-1.4v-0.9c-1.8,2.2-3.8,3.3-5.9,3.3
			c-1.4,0-2.6-0.5-3.6-1.4C376.9,115.1,376.4,113.8,376.4,112z M382.5,111.2c0,1,0.5,1.5,1.5,1.5c0.6,0,1.3-0.3,1.9-1
			c0.6-0.7,1-1.4,1-2.3v-0.1h-0.2c-0.9,0-1.6,0-2.1,0.1c-0.6,0.1-1.1,0.3-1.5,0.6C382.7,110.2,382.5,110.7,382.5,111.2z"/>
		<path class="st5" d="M394.4,122.8c0-1.7,0.5-2.6,1.5-2.6c3.7,0,5.5-1.6,5.5-4.9l-6.8-13.4c-0.1-0.3-0.2-0.5-0.2-0.8
			c0-0.7,0.5-1.4,1.4-2c0.9-0.6,1.8-0.9,2.7-0.9c0.9,0,1.4,0.3,1.7,1l4.4,10.5l3.2-10.5c0.3-0.6,0.8-1,1.6-1c0.8,0,1.7,0.3,2.7,0.9
			c1,0.6,1.5,1.3,1.5,2.1c0,0.3-0.1,0.5-0.2,0.7l-5.5,13.8c-0.1,0.4-0.4,1-0.7,1.8l-0.7,1.8c-0.1,0.4-0.4,0.9-0.7,1.6
			c-0.4,0.7-0.7,1.2-1,1.5c-0.3,0.3-0.7,0.7-1.2,1.2c-0.5,0.5-1.1,0.8-1.6,1c-0.6,0.2-1.3,0.4-2.1,0.6c-0.8,0.2-1.7,0.3-2.7,0.3
			c-0.9,0-1.6-0.2-2.1-0.5C394.6,124.6,394.4,123.9,394.4,122.8z"/>
		<path class="st5" d="M414.8,109.1v-2.7c0-2.5,0.7-4.5,2.2-6c1.5-1.5,3.7-2.3,6.6-2.3c1.9,0,3.4,0.3,4.7,1c1.3,0.6,1.9,1.4,1.9,2.3
			c0,0.7-0.2,1.3-0.7,2c-0.5,0.7-1,1-1.7,1c-0.2,0-0.7-0.1-1.4-0.4c-0.7-0.3-1.5-0.4-2.3-0.4c-2.2,0-3.2,1-3.2,3v2.6
			c0,2,1.1,3,3.3,3c0.8,0,1.5-0.2,2.2-0.5c0.7-0.3,1.2-0.5,1.5-0.5c0.8,0,1.4,0.3,1.9,0.9c0.5,0.6,0.7,1.3,0.7,1.9
			c0,0.9-0.7,1.7-2,2.4c-1.3,0.7-2.9,1-4.8,1c-3,0-5.2-0.8-6.6-2.3C415.5,113.6,414.8,111.6,414.8,109.1z"/>
		<path class="st5" d="M432.7,115.1v-14.9c0-0.5,0.3-1,0.8-1.3c0.6-0.3,1.3-0.5,2.1-0.5c0.8,0,1.4,0.2,1.9,0.5
			c0.5,0.3,0.8,0.8,0.8,1.3v1.5c0.4-0.9,1.1-1.8,1.9-2.5c0.9-0.7,1.8-1.1,2.7-1.1h1.1c0.6,0,1.1,0.3,1.5,0.8
			c0.4,0.5,0.6,1.1,0.6,1.8c0,0.7-0.2,1.4-0.6,1.9c-0.4,0.5-0.9,0.8-1.5,0.8H443c-1.1,0-2.1,0.5-3,1.6c-0.9,1.1-1.3,2.5-1.3,4.2v5.8
			c0,0.5-0.3,0.9-0.9,1.3c-0.6,0.4-1.3,0.6-2.2,0.6s-1.5-0.2-2.1-0.6C432.9,116.1,432.7,115.6,432.7,115.1z"/>
		<path class="st5" d="M447,112c0-2.1,0.8-3.5,2.4-4.4c1.6-0.9,3.8-1.3,6.8-1.3h1.4v-0.4c0-0.8-0.2-1.5-0.7-2.1
			c-0.5-0.6-1.2-0.9-2.2-0.9c-1.2,0-2.3,0.2-3.1,0.7c-0.8,0.5-1.3,0.7-1.5,0.7c-0.6,0-1.1-0.3-1.5-0.9c-0.4-0.6-0.5-1.3-0.5-2.1
			c0-0.9,0.7-1.6,2.2-2.2c1.4-0.6,2.9-0.9,4.5-0.9c3,0,5.2,0.7,6.7,2.2c1.5,1.5,2.2,3.3,2.2,5.5v9.3c0,0.5-0.3,1-0.8,1.3
			c-0.6,0.4-1.3,0.5-2.1,0.5c-0.8,0-1.4-0.2-1.9-0.6c-0.5-0.4-0.8-0.9-0.8-1.4v-0.9c-1.8,2.2-3.8,3.3-5.9,3.3
			c-1.4,0-2.6-0.5-3.6-1.4C447.4,115.1,447,113.8,447,112z M453,111.2c0,1,0.5,1.5,1.5,1.5c0.6,0,1.3-0.3,1.9-1c0.6-0.7,1-1.4,1-2.3
			v-0.1h-0.2c-0.9,0-1.6,0-2.1,0.1c-0.6,0.1-1.1,0.3-1.5,0.6C453.3,110.2,453,110.7,453,111.2z"/>
		<path class="st5" d="M464.9,100.7c0-0.6,0.5-1.2,1.4-1.8c0.9-0.5,1.8-0.8,2.7-0.8c0.9,0,1.4,0.3,1.7,1l4,10.2l4-10.2
			c0.3-0.6,0.8-1,1.6-1c0.7,0,1.6,0.3,2.6,0.8c1,0.5,1.5,1.1,1.5,1.8c0,0.2-0.1,0.5-0.2,0.7l-6.9,15c-0.3,0.7-1.2,1.1-2.7,1.1
			s-2.4-0.4-2.7-1.1l-6.9-15C465,101.3,464.9,101,464.9,100.7z"/>
		<path class="st5" d="M485.4,109.1v-2.8c0-2.2,0.9-4.1,2.6-5.7c1.8-1.6,3.9-2.4,6.3-2.4c2.3,0,4.3,0.7,5.9,2.1
			c1.6,1.4,2.5,3.2,2.5,5.3c0,0.8-0.1,1.5-0.3,2c-0.2,0.5-0.5,0.9-0.9,1.1c-0.4,0.2-0.8,0.3-1.1,0.4c-0.4,0.1-0.8,0.1-1.4,0.1h-7.5
			v0.2c0,1,0.4,1.8,1.1,2.3c0.7,0.6,1.7,0.9,2.9,0.9c0.9,0,1.9-0.2,2.9-0.7c1-0.5,1.7-0.7,2-0.7c0.6,0,1.2,0.3,1.6,0.9
			c0.4,0.6,0.6,1.2,0.6,1.7c0,0.8-0.7,1.6-2.1,2.4c-1.4,0.8-3.1,1.1-5.2,1.1c-2.9,0-5.3-0.8-7.1-2.3
			C486.3,113.6,485.4,111.6,485.4,109.1z M491.4,105.9h4.8c0.5,0,0.8-0.3,0.8-0.8c0-0.7-0.3-1.2-0.8-1.6c-0.6-0.4-1.2-0.6-2-0.6
			c-0.8,0-1.4,0.2-2,0.6c-0.6,0.4-0.8,0.9-0.8,1.6V105.9z"/>
	</g>
	<g>
		<path class="st5" d="M292.7,100.1c0.4,1.2,1.6,3.2,3.8,2.6c0.3-0.1,0.6-0.2,0.8-0.3c0.8,0.6,1.6,0.9,2.3,1.1
			c0.3,1.8,0.9,3.6,1.7,5.2v8.6c0,1.5,1.2,2.7,2.7,2.7h4.2c1.5,0,2.7-1.2,2.7-2.7v-0.5c3.6,1.2,7.6,1.2,11.2,0v0.5
			c0,1.5,1.2,2.7,2.7,2.7h4.2c1.5,0,2.7-1.2,2.7-2.7v-4.8c0.7,0.1,1.5,0.2,2.2,0.2c3.6,0,7-1.6,9.2-4.3h3.7c0.8,0,1.5-0.7,1.5-1.5
			v-7.8c0-0.8-0.7-1.5-1.5-1.5h-1.7c-1.4-3.9-4.9-6.8-9.1-7.6v-3.3c0-0.7-0.6-1.3-1.3-1.5c0,0-0.1,0-0.4,0c-0.9,0-3.2,0.4-5.8,4
			c-3.2-3-7.5-4.7-12-4.7c-9.5,0-17.2,7.5-17.2,16.6c0,0.2,0,0.5,0,0.7c-0.3-0.1-0.5-0.2-0.8-0.4c0.2-0.2,0.3-0.5,0.5-0.8
			c0.8-1.8-0.5-4-0.5-4.1c-0.1-0.1-0.1-0.2-0.2-0.2c-0.1-0.1-0.9-0.6-1.7-0.1c-0.7,0.4-1.1,1.4-1,2.9c0,0.8,0.3,1.5,0.6,2.1
			c0,0-0.1,0-0.1,0c-1.3,0.4-1.9-1.6-2-1.6c-0.1-0.4-0.6-0.6-1-0.5C292.8,99.3,292.5,99.7,292.7,100.1z M302.4,101.1
			c0-7.5,6.4-13.6,14.2-13.6c4.3,0,8.4,1.9,11.1,5.1c0.3,0.4,0.8,0.6,1.3,0.5c0.5,0,0.9-0.3,1.2-0.7c1.2-2,2.2-3,3-3.6v2.5
			c0,0.8,0.6,1.5,1.4,1.5c3.9,0.2,7.2,2.9,8,6.5c0.2,0.7,0.8,1.2,1.5,1.2h1.3v4.8h-2.9c-0.5,0-0.9,0.2-1.2,0.6
			c-1.6,2.3-4.3,3.6-7.2,3.6c-1.1,0-2.2-0.2-3.2-0.6c-0.5-0.2-1-0.1-1.4,0.2c-0.4,0.3-0.7,0.8-0.7,1.2v6.5h-3.6v-2.4
			c0-0.5-0.3-1-0.7-1.3c-0.4-0.3-1-0.3-1.5-0.1c-2,1-4.2,1.5-6.4,1.5c-2.3,0-4.4-0.5-6.5-1.5c-0.5-0.2-1-0.2-1.5,0.1
			c-0.4,0.3-0.7,0.8-0.7,1.3v2.5h-3.6v-8.7c0-0.3-0.1-0.5-0.2-0.8C303,105.6,302.4,103.4,302.4,101.1z M297.3,97.5
			C297.3,97.5,297.3,97.5,297.3,97.5c0.3,0.6,0.7,1.7,0.4,2.6c0,0.1-0.1,0.2-0.2,0.3c-0.3-0.4-0.4-0.8-0.4-1.3
			C297,97.8,297.3,97.5,297.3,97.5z"/>
		<ellipse class="st5" cx="338.1" cy="98.1" rx="1" ry="1.6"/>
		<path class="st5" d="M312.1,90.9c5.1-1.9,8.1,0,8.2,0.1c0.3,0.2,0.4,0.7,0.2,1c-0.2,0.3-0.7,0.4-1,0.2c-0.1-0.1-2.5-1.5-6.9,0.1
			c-0.1,0-0.2,0-0.3,0c-0.3,0-0.6-0.2-0.7-0.5C311.5,91.4,311.7,91,312.1,90.9z"/>
	</g>
</g>
<g>
	<g>
		<path class="st2" d="M619.7,115.1V90.4c0-0.5,0.2-0.9,0.6-1.3c0.4-0.4,1-0.5,1.6-0.5h8.1c2.8,0,5,0.7,6.7,2.2s2.5,3.7,2.5,6.8v0.2
			c0,3.1-0.9,5.4-2.6,6.8c-1.8,1.5-4.1,2.2-7,2.2h-3.9v8.4c0,0.6-0.3,1.1-0.9,1.4c-0.6,0.3-1.3,0.5-2.1,0.5c-0.8,0-1.5-0.2-2.1-0.5
			C620,116.2,619.7,115.7,619.7,115.1z M625.7,102h3.9c2.3,0,3.5-1.3,3.5-3.9v-0.4c0-2.6-1.2-3.9-3.5-3.9h-3.9V102z"/>
		<path class="st2" d="M640,112c0-2.1,0.8-3.5,2.4-4.4c1.6-0.9,3.8-1.3,6.8-1.3h1.4v-0.4c0-0.8-0.2-1.5-0.7-2.1
			c-0.5-0.6-1.2-0.9-2.2-0.9c-1.2,0-2.3,0.2-3.1,0.7c-0.8,0.5-1.3,0.7-1.5,0.7c-0.6,0-1.1-0.3-1.5-0.9c-0.4-0.6-0.5-1.3-0.5-2.1
			c0-0.9,0.7-1.6,2.2-2.2c1.4-0.6,2.9-0.9,4.5-0.9c3,0,5.2,0.7,6.7,2.2c1.5,1.5,2.2,3.3,2.2,5.5v9.3c0,0.5-0.3,1-0.8,1.3
			c-0.6,0.4-1.3,0.5-2.1,0.5c-0.8,0-1.4-0.2-1.9-0.6c-0.5-0.4-0.8-0.9-0.8-1.4v-0.9c-1.8,2.2-3.8,3.3-5.9,3.3
			c-1.4,0-2.6-0.5-3.6-1.4C640.5,115.1,640,113.8,640,112z M646.1,111.2c0,1,0.5,1.5,1.5,1.5c0.6,0,1.3-0.3,1.9-1
			c0.6-0.7,1-1.4,1-2.3v-0.1h-0.2c-0.9,0-1.6,0-2.1,0.1c-0.6,0.1-1.1,0.3-1.5,0.6C646.3,110.2,646.1,110.7,646.1,111.2z"/>
		<path class="st2" d="M658,122.8c0-1.7,0.5-2.6,1.5-2.6c3.7,0,5.5-1.6,5.5-4.9l-6.8-13.4c-0.1-0.3-0.2-0.5-0.2-0.8
			c0-0.7,0.5-1.4,1.4-2c0.9-0.6,1.8-0.9,2.7-0.9c0.9,0,1.4,0.3,1.7,1l4.4,10.5l3.2-10.5c0.3-0.6,0.8-1,1.6-1c0.8,0,1.7,0.3,2.7,0.9
			c1,0.6,1.5,1.3,1.5,2.1c0,0.3-0.1,0.5-0.2,0.7l-5.5,13.8c-0.1,0.4-0.4,1-0.7,1.8l-0.7,1.8c-0.1,0.4-0.4,0.9-0.7,1.6
			s-0.7,1.2-1,1.5c-0.3,0.3-0.7,0.7-1.2,1.2c-0.5,0.5-1.1,0.8-1.6,1c-0.6,0.2-1.3,0.4-2.1,0.6c-0.8,0.2-1.7,0.3-2.7,0.3
			c-0.9,0-1.6-0.2-2.1-0.5C658.2,124.6,658,123.9,658,122.8z"/>
		<path class="st2" d="M678.4,109.1v-2.7c0-2.5,0.7-4.5,2.2-6c1.5-1.5,3.7-2.3,6.6-2.3c1.9,0,3.4,0.3,4.7,1c1.3,0.6,1.9,1.4,1.9,2.3
			c0,0.7-0.2,1.3-0.7,2c-0.5,0.7-1,1-1.7,1c-0.2,0-0.7-0.1-1.4-0.4c-0.7-0.3-1.5-0.4-2.3-0.4c-2.2,0-3.2,1-3.2,3v2.6
			c0,2,1.1,3,3.3,3c0.8,0,1.5-0.2,2.2-0.5c0.7-0.3,1.2-0.5,1.5-0.5c0.8,0,1.4,0.3,1.9,0.9c0.5,0.6,0.7,1.3,0.7,1.9
			c0,0.9-0.7,1.7-2,2.4c-1.3,0.7-2.9,1-4.8,1c-3,0-5.2-0.8-6.6-2.3C679.1,113.6,678.4,111.6,678.4,109.1z"/>
		<path class="st2" d="M696.3,115.1v-14.9c0-0.5,0.3-1,0.8-1.3c0.6-0.3,1.3-0.5,2.1-0.5c0.8,0,1.4,0.2,1.9,0.5
			c0.5,0.3,0.8,0.8,0.8,1.3v1.5c0.4-0.9,1.1-1.8,1.9-2.5c0.9-0.7,1.8-1.1,2.7-1.1h1.1c0.6,0,1.1,0.3,1.5,0.8
			c0.4,0.5,0.6,1.1,0.6,1.8c0,0.7-0.2,1.4-0.6,1.9c-0.4,0.5-0.9,0.8-1.5,0.8h-1.1c-1.1,0-2.1,0.5-3,1.6c-0.9,1.1-1.3,2.5-1.3,4.2
			v5.8c0,0.5-0.3,0.9-0.9,1.3c-0.6,0.4-1.3,0.6-2.2,0.6s-1.5-0.2-2.1-0.6C696.5,116.1,696.3,115.6,696.3,115.1z"/>
		<path class="st2" d="M710.6,112c0-2.1,0.8-3.5,2.4-4.4c1.6-0.9,3.8-1.3,6.8-1.3h1.4v-0.4c0-0.8-0.2-1.5-0.7-2.1
			c-0.5-0.6-1.2-0.9-2.2-0.9c-1.2,0-2.3,0.2-3.1,0.7c-0.8,0.5-1.3,0.7-1.5,0.7c-0.6,0-1.1-0.3-1.5-0.9c-0.4-0.6-0.5-1.3-0.5-2.1
			c0-0.9,0.7-1.6,2.2-2.2c1.4-0.6,2.9-0.9,4.5-0.9c3,0,5.2,0.7,6.7,2.2c1.5,1.5,2.2,3.3,2.2,5.5v9.3c0,0.5-0.3,1-0.8,1.3
			c-0.6,0.4-1.3,0.5-2.1,0.5c-0.8,0-1.4-0.2-1.9-0.6c-0.5-0.4-0.8-0.9-0.8-1.4v-0.9c-1.8,2.2-3.8,3.3-5.9,3.3
			c-1.4,0-2.6-0.5-3.6-1.4C711,115.1,710.6,113.8,710.6,112z M716.6,111.2c0,1,0.5,1.5,1.5,1.5c0.6,0,1.3-0.3,1.9-1
			c0.6-0.7,1-1.4,1-2.3v-0.1h-0.2c-0.9,0-1.6,0-2.1,0.1c-0.6,0.1-1.1,0.3-1.5,0.6C716.9,110.2,716.6,110.7,716.6,111.2z"/>
		<path class="st2" d="M728.5,100.7c0-0.6,0.5-1.2,1.4-1.8c0.9-0.5,1.8-0.8,2.7-0.8c0.9,0,1.4,0.3,1.7,1l4,10.2l4-10.2
			c0.3-0.6,0.8-1,1.6-1c0.7,0,1.6,0.3,2.6,0.8c1,0.5,1.5,1.1,1.5,1.8c0,0.2-0.1,0.5-0.2,0.7l-6.9,15c-0.3,0.7-1.2,1.1-2.7,1.1
			c-1.5,0-2.4-0.4-2.7-1.1l-6.9-15C728.6,101.3,728.5,101,728.5,100.7z"/>
		<path class="st2" d="M749,109.1v-2.8c0-2.2,0.9-4.1,2.6-5.7c1.8-1.6,3.9-2.4,6.3-2.4c2.3,0,4.3,0.7,5.9,2.1
			c1.6,1.4,2.5,3.2,2.5,5.3c0,0.8-0.1,1.5-0.3,2c-0.2,0.5-0.5,0.9-0.9,1.1c-0.4,0.2-0.8,0.3-1.1,0.4c-0.4,0.1-0.8,0.1-1.4,0.1H755
			v0.2c0,1,0.4,1.8,1.1,2.3c0.7,0.6,1.7,0.9,2.9,0.9c0.9,0,1.9-0.2,2.9-0.7c1-0.5,1.7-0.7,2-0.7c0.6,0,1.2,0.3,1.6,0.9
			c0.4,0.6,0.6,1.2,0.6,1.7c0,0.8-0.7,1.6-2.1,2.4c-1.4,0.8-3.1,1.1-5.2,1.1c-2.9,0-5.3-0.8-7.1-2.3
			C749.9,113.6,749,111.6,749,109.1z M755,105.9h4.8c0.5,0,0.8-0.3,0.8-0.8c0-0.7-0.3-1.2-0.8-1.6c-0.6-0.4-1.2-0.6-2-0.6
			c-0.8,0-1.4,0.2-2,0.6c-0.6,0.4-0.8,0.9-0.8,1.6V105.9z"/>
	</g>
	<g>
		<path class="st2" d="M556.3,100.1c0.4,1.2,1.6,3.2,3.8,2.6c0.3-0.1,0.6-0.2,0.8-0.3c0.8,0.6,1.6,0.9,2.3,1.1
			c0.3,1.8,0.9,3.6,1.7,5.2v8.6c0,1.5,1.2,2.7,2.7,2.7h4.2c1.5,0,2.7-1.2,2.7-2.7v-0.5c3.6,1.2,7.6,1.2,11.2,0v0.5
			c0,1.5,1.2,2.7,2.7,2.7h4.2c1.5,0,2.7-1.2,2.7-2.7v-4.8c0.7,0.1,1.5,0.2,2.2,0.2c3.6,0,7-1.6,9.2-4.3h3.7c0.8,0,1.5-0.7,1.5-1.5
			v-7.8c0-0.8-0.7-1.5-1.5-1.5h-1.7c-1.4-3.9-4.9-6.8-9.1-7.6v-3.3c0-0.7-0.6-1.3-1.3-1.5c0,0-0.1,0-0.4,0c-0.9,0-3.2,0.4-5.8,4
			c-3.2-3-7.5-4.7-12-4.7c-9.5,0-17.2,7.5-17.2,16.6c0,0.2,0,0.5,0,0.7c-0.3-0.1-0.5-0.2-0.8-0.4c0.2-0.2,0.3-0.5,0.5-0.8
			c0.8-1.8-0.5-4-0.5-4.1c-0.1-0.1-0.1-0.2-0.2-0.2c-0.1-0.1-0.9-0.6-1.7-0.1c-0.7,0.4-1.1,1.4-1,2.9c0,0.8,0.3,1.5,0.6,2.1
			c0,0-0.1,0-0.1,0c-1.3,0.4-1.9-1.6-2-1.6c-0.1-0.4-0.6-0.6-1-0.5C556.3,99.3,556.1,99.7,556.3,100.1z M566,101.1
			c0-7.5,6.4-13.6,14.2-13.6c4.3,0,8.4,1.9,11.1,5.1c0.3,0.4,0.8,0.6,1.3,0.5c0.5,0,0.9-0.3,1.2-0.7c1.2-2,2.2-3,3-3.6v2.5
			c0,0.8,0.6,1.5,1.4,1.5c3.9,0.2,7.2,2.9,8,6.5c0.2,0.7,0.8,1.2,1.5,1.2h1.3v4.8H606c-0.5,0-0.9,0.2-1.2,0.6
			c-1.6,2.3-4.3,3.6-7.2,3.6c-1.1,0-2.2-0.2-3.2-0.6c-0.5-0.2-1-0.1-1.4,0.2c-0.4,0.3-0.7,0.8-0.7,1.2v6.5h-3.6v-2.4
			c0-0.5-0.3-1-0.7-1.3c-0.4-0.3-1-0.3-1.5-0.1c-2,1-4.2,1.5-6.4,1.5c-2.3,0-4.4-0.5-6.5-1.5c-0.5-0.2-1-0.2-1.5,0.1
			c-0.4,0.3-0.7,0.8-0.7,1.3v2.5h-3.6v-8.7c0-0.3-0.1-0.5-0.2-0.8C566.6,105.6,566,103.4,566,101.1z M560.9,97.5
			C560.9,97.5,560.9,97.5,560.9,97.5c0.3,0.6,0.7,1.7,0.4,2.6c0,0.1-0.1,0.2-0.2,0.3c-0.3-0.4-0.4-0.8-0.4-1.3
			C560.6,97.8,560.9,97.5,560.9,97.5z"/>
		<ellipse class="st2" cx="601.7" cy="98.1" rx="1" ry="1.6"/>
		<path class="st2" d="M575.7,90.9c5.1-1.9,8.1,0,8.2,0.1c0.3,0.2,0.4,0.7,0.2,1c-0.2,0.3-0.7,0.4-1,0.2c-0.1-0.1-2.5-1.5-6.9,0.1
			c-0.1,0-0.2,0-0.3,0c-0.3,0-0.6-0.2-0.7-0.5C575.1,91.4,575.3,91,575.7,90.9z"/>
	</g>
</g>
<text transform="matrix(1 0 0 1 20.9998 36.3335)" class="st2 st6 st7">Logos</text>
<text transform="matrix(1 0 0 1 20.9998 161.3335)" class="st2 st6 st8">Main Mark on White Background</text>
<text transform="matrix(1 0 0 1 20.9998 376.0002)" class="st2 st6 st8">Main Color</text>
<text transform="matrix(1 0 0 1 170.7155 376.0002)" class="st2 st6 st8">Supporting Color</text>
<text transform="matrix(1 0 0 1 470.2353 376.0002)" class="st2 st6 st8">Text Color</text>
<text transform="matrix(1 0 0 1 320.4754 376.0002)" class="st2 st6 st8">Action Color</text>
<text transform="matrix(1 0 0 1 619.9506 376.0002)" class="st2 st6 st8">Additional Color</text>
<text transform="matrix(1 0 0 1 264.6665 161.3335)" class="st2 st6 st8">Main Mark on Primary Color Background</text>
<text transform="matrix(1 0 0 1 556.2163 161.3335)" class="st2 st6 st8">Main Mark in Black</text>
<line class="st9" x1="21" y1="51.3" x2="769.7" y2="51.3"/>
<text transform="matrix(1 0 0 1 20.9998 250.6668)" class="st2 st6 st7">Color Palette</text>
<line class="st9" x1="21" y1="265.7" x2="769.7" y2="265.7"/>
<text transform="matrix(1 0 0 1 20.9998 466.0002)" class="st2 st6 st7">Fonts</text>
<text transform="matrix(1 0 0 1 20.9998 530.6668)" class="st2 st10 st11">Paycrave</text>
<text transform="matrix(1 0 0 1 334.6665 554.3335)"><tspan x="0" y="0" class="st2 st6 st8">Avenir Regular</tspan><tspan x="0" y="14" class="st2 st12 st13">Use for text content within</tspan><tspan x="0" y="26" class="st2 st12 st13">iOS 7 app font only</tspan></text>
<text transform="matrix(1 0 0 1 23.9998 554.3335)"><tspan x="0" y="0" class="st2 st6 st8">Dosis Extrabold</tspan><tspan x="0" y="14" class="st2 st12 st13">Use for main mark only</tspan></text>
<text transform="matrix(1 0 0 1 334.6665 530.6668)" class="st2 st14 st11">Avenir</text>
<text transform="matrix(1 0 0 1 622.4438 554.3335)"><tspan x="0" y="0" class="st2 st6 st8">Roboto Light &amp; Regular</tspan><tspan x="0" y="14" class="st2 st12 st13">Use for text content within</tspan><tspan x="0" y="26" class="st2 st12 st13">Android app font only</tspan></text>
<text transform="matrix(1 0 0 1 622.4438 530.6668)" class="st2 st15 st11">Roboto</text>
<line class="st9" x1="21" y1="481" x2="769.7" y2="481"/>
<text transform="matrix(1 0 0 1 54.9167 325.6667)" class="st5 st16 st7">#C0392B</text>
<text transform="matrix(1 0 0 1 207.6342 325.6667)" class="st5 st16 st7">#FF6353</text>
<text transform="matrix(1 0 0 1 509.3425 325.6667)" class="st5 st16 st7">#333333</text>
<text transform="matrix(1 0 0 1 356.5939 325.6667)" class="st5 st16 st7">#2CC36b</text>
<text transform="matrix(1 0 0 1 652.6385 325.6667)" class="st2 st16 st7">#EAEAEA</text>
</svg>
